<svg xmlns="http://www.w3.org/2000/svg" width="32" height="32" viewBox="0 0 32 32">
    <g fill="none" fill-rule="evenodd">
        <g fill="#333">
            <g>
                <path d="M18.286 4.292c.394-.39 1.032-.39 1.426 0l12 10.935c.21.21.3.49.287.76v.12c-.015.238-.106.47-.286.65L19.712 27.69c-.394.39-1.032.39-1.426 0-.393-.4-.393-1.03 0-1.42l10.172-9.278H.999c-.552 0-.999-.447-.999-1 0-.551.447-.999 1-.999h27.473L18.286 5.712c-.363-.36-.391-.933-.084-1.325z" transform="translate(-376 -592) translate(376 592)"/>
            </g>
        </g>
    </g>
</svg>
