<svg xmlns="http://www.w3.org/2000/svg" xmlns:xlink="http://www.w3.org/1999/xlink" width="74" height="74" viewBox="0 0 74 74">
    <defs>
        <path id="zccw217xpa" d="M36.422 0c14.743 0 26.696 11.954 26.696 26.696 0 5.688-1.778 10.96-4.81 15.29L70.28 63.96l-11.457 1.1-7.596 8.94-11.355-20.827c-1.13.146-2.281.22-3.45.22-1.25 0-2.481-.085-3.686-.251L21.362 74l-7.594-8.942-11.456-1.1 12.08-22.177c-2.944-4.291-4.667-9.486-4.667-15.085C9.725 11.953 21.677 0 36.422 0zm7.305 52.381c-.505.143-1.016.272-1.534.386l9.434 17.309 1.09-1.283-8.99-16.412zm-14.83-.063l-9.025 16.478 1.086 1.28 9.466-17.36c-.515-.117-1.024-.25-1.527-.398zm-2.39-.827L18.131 66.75l1.223 1.439 8.816-16.095c-.563-.183-1.119-.384-1.665-.603zm19.622.082c-.55.215-1.107.411-1.673.59l8.776 16.024 1.224-1.438-8.327-15.176zm2.235-.994c-.504.253-1.018.49-1.54.712l8.148 14.852 1.18-1.388-7.788-14.176zm-24.084-.1l-7.843 14.275 1.18 1.388 8.197-14.939c-.52-.225-1.031-.467-1.534-.724zm27.157-1.706c-.775.529-1.58 1.018-2.412 1.464l7.642 13.912 1.04-1.221 1.416-.138-7.686-14.017zm-30.217-.127L13.466 62.79l1.42.138 1.036 1.219 7.7-14.016c-.828-.453-1.63-.95-2.402-1.485zm-1.885-1.436l-8.41 15.335 1.734.167 7.952-14.501c-.435-.321-.861-.655-1.276-1zm33.998.144c-.417.342-.845.672-1.282.988l7.877 14.37 1.735-.167-8.33-15.19zm1.878-1.693c-.419.415-.851.817-1.297 1.203l8.554 15.603 1.822-.176-9.079-16.63zm-37.743-.163L8.298 62.29l1.822.176 8.638-15.752c-.443-.391-.874-.797-1.29-1.217zm-1.599-1.761L5.89 62.059l1.604.154 9.433-17.277c-.364-.39-.716-.789-1.057-1.2zm40.951.183c-.343.406-.698.801-1.064 1.186l9.34 17.107 1.607-.154-9.883-18.14zM36.422 2.232c-13.512 0-24.465 10.953-24.465 24.464 0 13.514 10.952 24.465 24.465 24.465 13.511 0 24.464-10.953 24.464-24.465 0-13.51-10.954-24.464-24.464-24.464zm0 3.3c11.688 0 21.164 9.477 21.164 21.164 0 11.69-9.475 21.165-21.164 21.165-11.69 0-21.164-9.475-21.164-21.165 0-11.687 9.476-21.164 21.164-21.164zm0 .744c-11.277 0-20.42 9.144-20.42 20.42 0 11.279 9.142 20.42 20.42 20.42 11.279 0 20.42-9.141 20.42-20.42 0-11.276-9.142-20.42-20.42-20.42zm-2.185 15.788l.015.053 2.089 6.732.232.765c.092-.286.184-.587.288-.932l.072-.238.28-.893 1.702-5.487h1.523l-.03.098-3.166 9.734h-1.345l-.083-.247-3.143-9.585h1.566zm-12.652 0v8.46h4.152v1.372h-5.622v-9.833h1.47zm10.81 0v1.356H28.11v2.604h3.61v1.357h-3.61v3.143h4.425v1.372H26.64v-9.833h5.755zm14.035 0v1.356h-4.285v2.604h3.61v1.357h-3.61v3.143h4.422v1.372h-5.895v-9.833h5.758zm2.876 0v8.46h4.148v1.372h-5.619v-9.833h1.47z"/>
    </defs>
    <g fill="none" fill-rule="evenodd">
        <g>
            <g transform="translate(-1314 -308) translate(1314 308)">
                <mask id="dnilkbmypb" fill="#fff">
                    <use xlink:href="#zccw217xpa"/>
                </mask>
                <use fill="#050000" fill-rule="nonzero" xlink:href="#zccw217xpa"/>
                <g fill="#333" mask="url(#dnilkbmypb)">
                    <path d="M0 0H74V74H0z"/>
                </g>
            </g>
        </g>
    </g>
</svg>
